# AST/ASF file generated using VICON BodyLanguage
# -----------------------------------------------
:version 1.10
:name VICON
:units
  mass 1.0
  length 0.45
  angle deg
:documentation
   .ast/.asf automatically generated from VICON data using
   VICON BodyBuilder and BodyLanguage model FoxedUp or BRILLIANT.MOD
:root
   order TX TY TZ RX RY RZ
   axis XYZ
   position 0 0 0  
   orientation 0 0 0 
:bonedata
  begin
     id 1 
     name lhipjoint
     direction 0.677091 -0.635792 0.370561 
     length 2.74323 
     axis 0 0 0  XYZ
  end
  begin
     id 2 
     name lfemur
     direction 0.34202 -0.939693 0  
     length 7.44995  
     axis 0 0 20  XYZ
    dof rx ry rz
    limits (-160.0 20.0)
           (-70.0 70.0)
           (-60.0 70.0)
  end
  begin
     id 3 
     name ltibia
     direction 0.34202 -0.939693 0   
     length 7.34467   
     axis 0 0 20   XYZ
    dof rx
    limits (-10.0 170.0)
  end
  begin
     id 4 
     name lfoot
     direction 0.101953 -0.280114 0.954537   
     length 1.72105   
     axis -90 7.62852e-016 20   XYZ
    dof rx rz
    limits (-45.0 90.0)
           (-70.0 20.0)
  end
  begin
     id 5 
     name ltoes
     direction 1.53537e-011 -4.21915e-011 1   
     length 0.865872   
     axis -90 7.62852e-016 20   XYZ
    dof rx
    limits (-90.0 20.0)
  end
  begin
     id 6 
     name rhipjoint
     direction -0.695735 -0.620586 0.361699   
     length 2.81045  
     axis 0 0 0  XYZ 
  end
  begin
     id 7 
     name rfemur
     direction -0.34202 -0.939693 0   
     length 7.29387   
     axis 0 0 -20   XYZ
    dof rx ry rz
    limits (-160.0 20.0)
           (-70.0 70.0)
           (-70.0 60.0)
  end
  begin
     id 8 
     name rtibia
     direction -0.34202 -0.939693 0   
     length 7.44935   
     axis 0 0 -20   XYZ
    dof rx
    limits (-10.0 170.0)
 end
 begin
     id 9 
     name rfoot
     direction -0.104163 -0.286184 0.952496   
     length 1.77731  
     axis -90 -7.62852e-016 -20   XYZ
    dof rx rz
    limits (-45.0 90.0)
           (-20.0 70.0)
  end
  begin
     id 10 
     name rtoes
     direction -1.5355e-011 -4.21888e-011 1   
     length 0.892424   
     axis -90 -7.62852e-016 -20   XYZ
    dof rx
    limits (-90.0 20.0)
  end
  begin
     id 11 
     name lowerback
     direction 0.0100202 0.997226 -0.0737589   
     length 2.16892   
     axis 0 0 0   XYZ
    dof rx ry rz
    limits (-20.0 45.0)
           (-30.0 30.0)
           (-30.0 30.0)
  end
  begin
     id 12 
     name upperback
     direction 0.00432398 0.999988 -0.00215019   
     length 2.17326   
     axis 0 0 0   XYZ
    dof rx ry rz
    limits (-20.0 45.0)
           (-30.0 30.0)
           (-30.0 30.0)
  end
  begin
     id 13 
     name thorax
     direction -0.00195047 0.999485 0.0320434   
     length 2.18139   
     axis 0 0 0   XYZ
    dof rx ry rz
    limits (-20.0 45.0)
           (-30.0 30.0)
           (-30.0 30.0)
  end
  begin
     id 14 
     name lowerneck
     direction 0.00782762 0.986241 0.165128   
     length 1.88415   
     axis 0 0 0   XYZ
    dof rx ry rz
    limits (-20.0 45.0)
           (-30.0 30.0)
           (-30.0 30.0)
  end
  begin
     id 15 
     name upperneck
     direction 0.00988667 0.981098 -0.193258   
     length 1.9242   
     axis 0 0 0   XYZ
    dof rx ry rz
    limits (-20.0 45.0)
           (-30.0 30.0)
           (-30.0 30.0)
  end
  begin
     id 16
     name head
     direction 0.00252199 0.996513 -0.0833958  
     length 1.93887  
     axis 0 0 0   XYZ
    dof rx ry rz
    limits (-20.0 45.0)
           (-30.0 30.0)
           (-30.0 30.0)
  end
  begin
     id 17 
     name lclavicle
     direction 0.929492 0.368193 -0.0218667  
     length 3.5955  
     axis 0 0 0   XYZ
    dof ry rz
    limits (-20.0 10.0)
           (0.0 20.0)
  end
  begin
     id 18 
     name lhumerus
     direction 1 -4.48972e-011 1.41911e-027   
     length 5.2795   
     axis 180 -30 -90   XYZ
    dof rx ry rz
    limits (-60.0 90.0)
           (-90.0 90.0)
           (-90.0 90.0)
  end
  begin
     id 19
     name lradius
     direction 1 -4.48963e-011 7.05772e-027   
     length 3.53504   
     axis 180 -30 -90   XYZ
    dof rx
    limits (-10.0 170.0)
  end
  begin
     id 20
     name lwrist
     direction 1 -4.48957e-011 9.54866e-027   
     length 1.76752   
     axis -7.69462e-015 90 90   XYZ
    dof ry
    limits (-180.0 0.0)
 end
  begin
     id 21 
     name lhand
     direction 1 -4.48979e-011 1.90973e-026   
     length 0.667948   
     axis -1.21857e-014 90 90   XYZ
    dof rx rz
    limits (-90.0 90.0)
           (-45.0 45.0)
  end
  begin
     id 22 
     name lfingers
     direction 1 -4.48987e-011 3.81946e-026   
     length 0.538517   
     axis -2.43714e-014 90 90   XYZ
    dof rx
    limits (0.0 90.0)
  end
  begin
     id 23
     name lthumb
     direction 0.707107 -6.34962e-011 0.707107   
     length 0.773206   
     axis -90 45 2.85299e-015   XYZ
    dof rx rz
    limits (-45.0 45.0)
           (-45.0 45.0)
  end
  begin
     id 24 
     name rclavicle
     direction -0.898763 0.414256 -0.143584   
     length 3.5176  
     axis 0 0 0   XYZ 
    dof ry rz
    limits (-10.0 20.0)
           (-20.0 0.0)
  end
  begin
     id 25 
     name rhumerus
     direction -1 -4.48971e-011 1.129e-027  
     length 5.25035   
     axis 180 30 90   XYZ
    dof rx ry rz
    limits (-90.0 60.0)
           (-90.0 90.0)
           (-90.0 90.0)
  end
  begin
     id 26 
     name rradius
     direction -1 -4.48955e-011 6.34664e-027   
     length 3.58884   
     axis 180 30 90   XYZ
    dof rx
    limits (-10.0 170.0)
  end
  begin
     id 27 
     name rwrist
     direction -1 -4.48966e-011 9.54866e-027   
     length 1.79442   
     axis -7.69462e-015 -90 -90   XYZ
    dof ry
    limits (-180.0 0.0)
  end
  begin
     id 28
     name rhand
     direction -1 -4.48973e-011 1.90973e-026   
     length 0.779235   
     axis -1.21857e-014 -90 -90   XYZ
    dof rx rz
    limits (-90.0 90.0)
           (-45.0 45.0)
  end
  begin
     id 29
     name rfingers
     direction -1 -4.48984e-011 3.81946e-026   
     length 0.62824   
     axis -2.43714e-014 -90 -90   XYZ
    dof rx
    limits (0.0 90.0)
  end
  begin
     id 30
     name rthumb
     direction -0.707107 -6.34968e-011 0.707107   
     length 0.90203   
     axis -90 -45 -2.85299e-015   XYZ
    dof rx rz
    limits (-45.0 45.0)
           (-45.0 45.0)
  end
:hierarchy
  begin
    root lhipjoint rhipjoint lowerback
    lhipjoint lfemur
    lfemur ltibia
    ltibia lfoot
    lfoot ltoes
    rhipjoint rfemur
    rfemur rtibia
    rtibia rfoot
    rfoot rtoes
    lowerback upperback
    upperback thorax
    thorax lowerneck lclavicle rclavicle
    lowerneck upperneck
    upperneck head
    lclavicle lhumerus
    lhumerus lradius
    lradius lwrist
    lwrist lhand lthumb
    lhand lfingers
    rclavicle rhumerus
    rhumerus rradius
    rradius rwrist
    rwrist rhand rthumb
    rhand rfingers
  end

#!OML:ASF I:\Random Stuff\random\construction\7_22_03\Session 2\subj1.ASF
:FULLY-SPECIFIED
:DEGREES
107
root -20.7418 17.5229 -1.93992 -168.996 83.008 -175.458
lowerback 2.6723 0.809919 0.798351
upperback -2.3345 1.19051 1.39997
thorax -3.91597 0.601038 0.922306
lowerneck -23.0539 -0.0608423 0.115052
upperneck 35.6479 0.195822 1.60839
head 16.7984 0.683195 0.840391
rclavicle -1.53064e-014 -8.34896e-015
rhumerus -40.2839 -0.1405 -79.7486
rradius 33.5863
rwrist 4.87209
rhand -16.9294 19.484
rfingers 7.12502
rthumb 9.30347 -10.2907
lclavicle -1.53064e-014 -8.34896e-015
lhumerus -35.7296 -6.20324 90.8199
lradius 30.8737
lwrist 23.3667
lhand -19.6066 52.9622
lfingers 7.12502
lthumb 6.7196 82.8355
rfemur -10.909 5.7027 21.3729
rtibia 22.0292
rfoot -15.7305 -25.8044
rtoes 0.0819265
lfemur -11.7006 -17.2504 -15.5067
ltibia 22.3022
lfoot -12.6444 20.3391
ltoes -12.1156
108
root -20.7095 17.5159 -1.89913 -169.006 83.4741 -175.416
lowerback 2.71921 0.783935 0.690948
upperback -2.28575 1.14871 1.38029
thorax -3.89314 0.582257 0.964403
lowerneck -22.9484 0.0305634 0.0117601
upperneck 35.6721 0.238156 1.97244
head 16.7846 0.742221 1.02923
rclavicle 2.83765e-014 9.54166e-015
rhumerus -40.4662 -0.00943561 -80.0352
rradius 33.4979
rwrist 4.61091
rhand -16.9456 19.6742
rfingers 7.12502
rthumb 9.28781 -10.1012
lclavicle 2.83765e-014 9.54166e-015
lhumerus -35.8794 -6.11 90.57
lradius 30.7438
lwrist 23.5407
lhand -19.9694 53.3921
lfingers 7.12502
lthumb 6.36936 83.2764
rfemur -11.0185 5.01568 21.4698
rtibia 22.3636
rfoot -16.1249 -24.7854
rtoes -0.0233391
lfemur -11.3371 -16.87 -15.4656
ltibia 22.1415
lfoot -12.7334 20.257
ltoes -10.9772
109
root -20.676 17.5123 -1.85357 -169.658 83.951 -176.046
lowerback 2.77646 0.723773 0.505953
upperback -2.25268 1.05783 1.3548
thorax -3.8929 0.541018 1.04684
lowerneck -23.0197 0.0782719 0.178344
upperneck 35.848 0.330842 1.75272
head 16.8927 0.771663 0.92605
rclavicle -1.50082e-014 -2.82274e-014
rhumerus -40.6209 0.20913 -80.3293
rradius 33.3957
rwrist 4.18517
rhand -16.7531 19.8053
rfingers 7.12502
rthumb 9.4736 -9.96176
lclavicle -1.50082e-014 -2.82274e-014
lhumerus -36.045 -5.90062 90.2653
lradius 30.5274
lwrist 23.5659
lhand -20.1855 53.694
lfingers 7.12502
lthumb 6.16069 83.5844
rfemur -11.1687 4.44882 21.5062
rtibia 22.7114
rfoot -16.4898 -23.8914
rtoes -0.179857
lfemur -10.9969 -16.1812 -15.4726
ltibia 21.9494
lfoot -12.83 19.8599
ltoes -10.5707
110
root -20.6413 17.5078 -1.80497 -171.872 84.4748 -178.309
lowerback 2.75789 0.678455 0.166473
upperback -2.22128 0.977393 1.29924
thorax -3.85321 0.508539 1.18526
lowerneck -23.1414 0.119228 0.183709
upperneck 36.1071 0.410999 1.72874
head 17.0575 0.805188 0.938696
rclavicle -4.5472e-015 -4.37326e-015
rhumerus -40.8024 0.422689 -80.5948
rradius 33.3178
rwrist 3.69707
rhand -16.4299 19.8134
rfingers 7.12502
rthumb 9.78545 -9.9392
lclavicle -4.5472e-015 -4.37326e-015
lhumerus -36.0855 -5.39856 89.8181
lradius 30.0903
lwrist 23.4141
lhand -20.1556 53.3199
lfingers 7.12502
lthumb 6.18958 83.2095
rfemur -11.382 4.09179 21.3895
rtibia 23.0561
rfoot -16.7084 -23.1546
rtoes -0.345776
lfemur -10.7 -15.7327 -15.6199
ltibia 21.7338
lfoot -12.8506 19.7488
ltoes -9.94957
111
root -20.6049 17.5007 -1.75274 -174.25 85.0181 -180.736
lowerback 2.72034 0.673722 -0.122368
upperback -2.19206 0.952687 1.21367
thorax -3.8044 0.501832 1.26116
lowerneck -23.27 0.0976323 0.0786507
upperneck 36.3898 0.336215 1.97717
head 17.2401 0.803122 1.06261
rclavicle -1.5381e-014 4.77083e-015
rhumerus -41.0302 0.482694 -80.9023
rradius 33.1264
rwrist 3.50522
rhand -16.9911 19.5211
rfingers 7.12502
rthumb 9.24397 -10.2562
lclavicle -1.5381e-014 4.77083e-015
lhumerus -36.2076 -5.37096 89.622
lradius 29.7616
lwrist 22.9886
lhand -20.3521 53.3732
lfingers 7.12502
lthumb 5.99987 83.2683
rfemur -11.5566 3.82428 21.3217
rtibia 23.3697
rfoot -16.8754 -22.4936
rtoes -0.519071
lfemur -10.3886 -15.3818 -15.7337
ltibia 21.5153
lfoot -12.8214 19.7871
ltoes -9.21012
112
root -20.5668 17.4912 -1.69652 -175.284 85.5551 -181.723
lowerback 2.77144 0.674378 -0.220849
upperback -2.14134 0.944516 1.13752
thorax -3.78083 0.498286 1.23811
lowerneck -23.2993 0.160081 0.357116
upperneck 36.55 0.445113 1.66004
head 17.3331 0.840747 0.897384
rclavicle -9.36773e-015 -3.18055e-015
rhumerus -41.1768 0.459325 -81.2241
rradius 32.7897
rwrist 3.3514
rhand -16.8505 19.6661
rfingers 7.12502
rthumb 9.37961 -10.1053
lclavicle -9.36773e-015 -3.18055e-015
lhumerus -36.3417 -5.32409 89.3206
lradius 29.3769
lwrist 22.6108
lhand -20.3449 53.3345
lfingers 7.12502
lthumb 6.00681 83.2293
rfemur -11.5837 3.51862 21.4554
rtibia 23.6261
rfoot -17.0114 -21.8442
rtoes -1.12006
lfemur -9.97907 -14.8348 -15.6949
ltibia 21.3088
lfoot -12.7066 19.6984
ltoes -8.84742
113
root -20.5285 17.4827 -1.63719 -175.709 86.0773 -182.143
lowerback 2.81492 0.653906 -0.233777
upperback -2.10847 0.913252 1.07819
thorax -3.7698 0.481565 1.18582
lowerneck -23.1744 0.222207 0.353743
upperneck 36.4702 0.518342 1.70247
head 17.2581 0.872998 0.928752
rclavicle 3.95085e-015 -3.18055e-015
rhumerus -41.2508 0.471491 -81.5028
rradius 32.3811
rwrist 3.03284
rhand -17.0299 19.3999
rfingers 7.12502
rthumb 9.20652 -10.3791
lclavicle 3.95085e-015 -3.18055e-015
lhumerus -36.3933 -5.11071 88.9282
lradius 28.8707
lwrist 22.2541
lhand -20.2111 53.2918
lfingers 7.12502
lthumb 6.136 83.183
rfemur -11.5836 3.3959 21.6507
rtibia 23.7678
rfoot -17.1169 -21.3196
rtoes -1.80548
lfemur -9.67034 -14.1678 -15.5673
ltibia 21.1959
lfoot -12.6453 19.5158
ltoes -8.27726
114
root -20.4918 17.4783 -1.57397 -176.426 86.5392 -182.881
lowerback 2.87122 0.587688 -0.298005
upperback -2.08677 0.820839 1.06833
thorax -3.77782 0.436737 1.21688
lowerneck -22.9951 0.294364 0.29982
upperneck 36.3416 0.637819 1.7182
head 17.143 0.91159 0.964391
rclavicle -2.06239e-015 -1.74931e-014
rhumerus -41.2901 0.521231 -81.6735
rradius 31.9216
rwrist 2.74079
rhand -17.1964 19.3572
rfingers 7.12502
rthumb 9.04584 -10.4288
lclavicle -2.06239e-015 -1.74931e-014
lhumerus -36.3524 -4.6982 88.5483
lradius 28.2571
lwrist 21.7781
lhand -20.0312 53.2142
lfingers 7.12502
lthumb 6.30968 83.1002
rfemur -11.5283 3.45813 21.8325
rtibia 23.7702
rfoot -17.2702 -20.9058
rtoes -1.70443
lfemur -9.51347 -13.1448 -15.4118
ltibia 21.2468
lfoot -13.1295 18.9099
ltoes -7.1674
115
root -20.4569 17.4727 -1.50694 -176.312 86.936 -182.695
lowerback 3.06741 0.521462 -0.299416
upperback -2.03555 0.732078 1.08635
thorax -3.83396 0.392371 1.24028
lowerneck -22.9523 0.373671 0.309776
upperneck 36.3653 0.810122 1.57993
head 17.1433 0.960151 0.935961
rclavicle 1.16786e-015 -9.93923e-015
rhumerus -41.3373 0.471117 -81.7279
rradius 31.5268
rwrist 2.55891
rhand -17.1137 19.4031
rfingers 7.12502
rthumb 9.12567 -10.3795
lclavicle 1.16786e-015 -9.93923e-015
lhumerus -36.2118 -4.13615 88.1229
lradius 27.5519
lwrist 21.2839
lhand -19.9695 53.0912
lfingers 7.12502
lthumb 6.36925 82.9754
rfemur -11.3308 3.5599 22.1016
rtibia 23.6807
rfoot -17.3737 -20.6013
rtoes -1.48678
lfemur -9.38489 -11.7241 -15.1701
ltibia 21.4561
lfoot -14.3544 17.8301
ltoes -5.04906
